<?xml version="1.0" encoding="UTF-8"?>
<svg width="40px" height="40px" viewBox="0 0 40 40" version="1.1" xmlns="http://www.w3.org/2000/svg" xmlns:xlink="http://www.w3.org/1999/xlink">
    <title>自动</title>
    <g id="自动" stroke="none" stroke-width="1" fill="none" fill-rule="evenodd">
        <g id="编组-2备份" transform="translate(0.000000, -0.000000)" fill="#D1A674" fill-rule="nonzero">
            <path d="M20.0000991,0 C26.6292622,0.0909998835 32.1182503,1.24188076 35.3920157,4.60843038 C38.7581192,7.88174972 39.9094462,13.3707378 40,19.9999009 C39.9111668,26.4712267 38.8118972,31.8560253 35.6282545,35.1542242 L35.3915696,35.3918174 C32.1182503,38.757921 26.6292622,39.9092479 20.0000991,39.9998017 C13.370936,39.9088019 7.88194797,38.757921 4.60818255,35.3913714 C1.24207902,32.118052 0.0907520625,26.629064 0,19.9999009 C0.0911981404,13.3707378 1.24207902,7.88174972 4.60862863,4.6079843 C7.88194797,1.24188076 13.370936,0.0905538057 20.0000991,0 Z M28.8276815,14.3102195 L28.5271214,15.120392 C28.1787211,16.062035 27.8105609,17.0340173 27.4892007,17.8599213 L27.3748007,18.1532015 L27.5484808,18.410524 C28.7944015,20.2556048 29.4745619,22.540044 29.4620819,24.8514516 C29.4641619,25.2312551 29.4444019,25.6110586 29.4007219,26.0234488 C29.3768019,26.5246096 29.530722,27.0066678 29.8364822,27.3797292 C30.1412024,27.7527906 30.5769626,27.9775264 31.0543229,27.9988763 L31.151043,27.9988763 C31.172883,27.9988763 31.192643,28 31.214483,28 C32.0776835,28 32.810884,27.3044427 32.9356841,26.3347078 C32.9814441,25.8425364 33.0022441,25.3413756 32.9991241,24.8525753 C33.0282441,21.1242086 31.7448833,17.6037225 29.3861619,14.9406034 L28.8276815,14.3102195 Z M20.0095161,10.6492735 C12.7139116,10.6492735 7,16.8856916 7,24.8458332 C6.99806812,25.3312625 7.01782814,25.8166918 7.06358816,26.3324605 C7.19670825,27.2875876 7.9423887,27.9741554 8.77126921,27.9741554 C8.83054925,27.9741554 8.88982929,27.9707843 8.94910932,27.965166 C9.3983896,27.9471871 9.83102987,27.7291934 10.1336701,27.3651214 C10.4394302,26.9999257 10.5975103,26.5268569 10.5787903,26.0099646 C10.5527903,25.6324085 10.5382303,25.2593471 10.5382303,24.8728015 C10.4935103,22.0849541 11.4835909,19.3521669 13.255752,17.3733683 C15.0247931,15.3990644 17.4947946,14.3158379 19.9855961,14.3113432 C20.4983164,14.3135906 21.0120767,14.3551667 21.5164771,14.4371952 L21.8035172,14.4843898 L21.9907173,14.2439225 C22.5335977,13.5472415 23.138878,12.7910056 23.7431184,12.0774695 L24.3192788,11.3976437 L23.4966383,11.1560527 C22.3588776,10.8200727 21.1857568,10.6492735 20.0095161,10.6492735 Z M28.0580811,10.0952998 C27.6108808,9.82898792 27.3602406,9.68740437 22.4826376,15.942925 C22.1569284,16.3607293 21.8203081,16.7957911 21.4818459,17.2362835 L21.0753875,17.766724 C19.3152665,20.0700347 17.6034274,22.3922632 17.2150344,23.0704205 C16.7615941,23.8626142 16.618074,24.675034 16.8011142,25.4177858 C16.9924743,26.1953716 17.5187146,26.8560948 18.3236751,27.3269163 C18.8727954,27.6482885 19.4250358,27.8044799 19.9502361,27.8044799 C20.9392767,27.8044799 21.8305572,27.2505061 22.4212776,26.1953716 C22.8570379,25.4189095 28.6363214,11.7178922 28.3316012,10.4807217 L28.2515212,10.2110388 Z" id="形状结合"></path>
        </g>
    </g>
</svg>