<?xml version="1.0" encoding="UTF-8"?>
<svg width="390px" height="390px" viewBox="0 0 390 390" version="1.1" xmlns="http://www.w3.org/2000/svg" xmlns:xlink="http://www.w3.org/1999/xlink">
    <title>木鱼狗狗</title>
    <g id="木鱼狗狗" stroke="none" stroke-width="1" fill="none" fill-rule="evenodd">
        <g id="编组-4">
            <rect id="矩形" fill="#474747" x="0" y="0" width="390" height="390"></rect>
            <g id="编组" transform="translate(61.000000, 85.000000)">
                <path d="M226,106.875688 L226,127.11487 C226,172.165618 184.603913,209 134,209 C83.3960873,209 42,172.165618 42,127.11487 L42,106.852478 C60.6243266,106.852478 75.7533314,93.4138474 75.7533314,76.8186467 L75.7533314,32 L192.298838,32 L192.298838,76.8418568 C192.272753,93.4138474 207.375673,106.875688 226,106.875688 Z" id="路径" fill="#C3BAB3" fill-rule="nonzero"></path>
                <polygon id="路径" fill="#C3BAB3" fill-rule="nonzero" points="76 31 193 31 193 50 76 50"></polygon>
                <path d="M134.013067,220 C78.8451588,220 34,179.07928 34,128.792315 L34,100.860409 L41.8139292,100.860409 C56.1351104,100.860409 67.7906703,90.2310311 67.7906703,77.1468872 L67.7906703,24 L200.183196,24 L200.183196,77.1707198 C200.183196,90.2310311 211.838756,100.884241 226.186071,100.884241 L234,100.884241 L234,128.792315 C233.973866,179.07928 189.128708,220 134.013067,220 Z M49.7303371,114.982311 L49.7303371,129.372749 C49.7303371,171.92255 87.5257442,206.56 134.013051,206.56 C180.474256,206.56 218.269663,171.946454 218.269663,129.372749 L218.269663,114.982311 C199.058738,111.635697 184.493933,96.121753 184.493933,77.5719522 L184.493933,38.56 L83.4799651,38.56 L83.4799651,77.5719522 C83.4799651,96.1456574 68.9412622,111.635697 49.7303371,114.982311 Z" id="形状" fill="#C3BAB3" fill-rule="nonzero"></path>
                <path d="M75,15.5568513 L75,82.0466472 C75,100.781341 60.0046386,116 41.4870506,116 C22.9694627,116 8,100.781341 8,82.0466472 L8,43.0291545 C8,23.664723 23.4874372,8 42.5747971,8 L67.5411674,8 C71.6590646,8 75,11.3848397 75,15.5568513 Z" id="路径" fill="#A6A6A6" fill-rule="nonzero"></path>
                <path d="M22.7363742,95.8674214 L22.7363742,57.3363522 C22.7363742,38.2133333 38.2238114,22.7438994 57.3111712,22.7438994 L75,22.7438994 L75,15.4626415 C75,11.3426415 71.6590646,8 67.5411674,8 L42.5747971,8 C23.4874372,8 8,23.469434 8,42.5924528 L8,81.123522 C8,94.1831447 15.4847313,105.454843 26.3880943,111 C24.0572091,106.439497 22.7363742,101.308931 22.7363742,95.8674214 Z" id="路径" fill="#A6A6A6" fill-rule="nonzero"></path>
                <path d="M41.5130298,123 C18.6065934,123 0,104.343869 0,81.4346627 L0,42.6351294 C0,19.1257955 19.1017268,0 42.5814757,0 L67.7029827,0 C76.1463108,0 83,6.86232499 83,15.3162919 L83,81.4346627 C83,104.343869 64.3934066,123 41.5130298,123 Z M42.5814757,15.6033093 C27.7014129,15.6033093 15.5836735,27.7363174 15.5836735,42.6351294 L15.5836735,81.4346627 C15.5836735,95.7333475 27.2062794,107.396691 41.5130298,107.396691 C55.7937206,107.396691 67.4163265,95.75944 67.4163265,81.4346627 L67.4163265,15.6033093 L42.5814757,15.6033093 Z" id="形状" fill="#A6A6A6" fill-rule="nonzero"></path>
                <path d="M260,43.0291545 L260,82.0466472 C260,100.781341 245.010433,116 226.5,116 C208.015456,116 193,100.80758 193,82.0466472 L193,15.5568513 C193,11.3848397 196.339645,8 200.481839,8 L225.438563,8 C244.544436,8 260,23.664723 260,43.0291545 Z" id="路径" fill="#A6A6A6" fill-rule="nonzero"></path>
                <path d="M224.9977,8 L203,8 C222.323367,8 237.976081,23.664723 237.976081,43.0291545 L237.976081,82.0466472 C237.976081,96.9241983 228.379945,109.54519 215.060718,114.137026 C218.521619,115.317784 222.218491,116 226.072677,116 C244.793008,116 260,100.80758 260,82.0466472 L260,43.0291545 C259.973781,23.664723 244.321067,8 224.9977,8 Z" id="路径" fill="#A6A6A6" fill-rule="nonzero"></path>
                <path d="M226.513003,123 C203.632641,123 185,104.369962 185,81.4346627 L185,15.3162919 C185,6.86232499 191.879744,0 200.323067,0 L225.444557,0 C248.924291,0 267.999973,19.1257955 267.999973,42.6351294 L267.999973,81.4346627 C268.026005,104.343869 249.419424,123 226.513003,123 Z M200.609723,15.6033093 L200.609723,81.4346627 C200.609723,95.7333475 212.232321,107.396691 226.539062,107.396691 C240.819743,107.396691 252.442342,95.75944 252.442342,81.4346627 L252.442342,42.6351294 C252.442342,27.7363174 240.35067,15.6033093 225.470617,15.6033093 L200.609723,15.6033093 Z" id="形状" fill="#A6A6A6" fill-rule="nonzero"></path>
                <path d="M160.47402,177 C144.756153,177 132,164.380645 132,148.870968 C132,146.729032 133.740656,145 135.896992,145 C138.053327,145 139.793984,146.729032 139.793984,148.870968 C139.793984,160.122581 149.094804,169.283871 160.5,169.283871 C171.905196,169.283871 181.206016,160.122581 181.206016,148.870968 C181.206016,146.729032 182.946673,145 185.103008,145 C187.259344,145 189,146.729032 189,148.870968 C188.94804,164.380645 176.191887,177 160.47402,177 L160.47402,177 Z" id="路径" fill="#FFFFFF" fill-rule="nonzero"></path>
                <path d="M110.47402,178 C94.7561531,178 82,164.98629 82,148.991935 C82,146.783065 83.7406563,145 85.8969918,145 C88.0533273,145 89.7939836,146.783065 89.7939836,148.991935 C89.7939836,160.595161 99.094804,170.042742 110.5,170.042742 C121.905196,170.042742 131.206016,160.595161 131.206016,148.991935 C131.206016,146.783065 132.946673,145 135.103008,145 C137.259344,145 139,146.783065 139,148.991935 C138.97402,164.98629 126.191887,178 110.47402,178 Z" id="路径" fill="#FFFFFF" fill-rule="nonzero"></path>
                <path d="M127,137.5 C127,142.746705 131.253295,147 136.5,147 C141.746705,147 146,142.746705 146,137.5 C146,132.253295 141.746705,128 136.5,128 C131.253295,128 127,132.253295 127,137.5 L127,137.5 Z" id="路径" fill="#383F51" fill-rule="nonzero"></path>
                <rect id="矩形" fill="#C3BAB3" x="82" y="128" width="107" height="50"></rect>
                <path d="M119.185484,185 C108.491935,185 100,176.584416 100,165.987013 C100,163.181818 102.201613,161 105.032258,161 C107.862903,161 110.064516,163.181818 110.064516,165.987013 C110.064516,171.285714 114.153226,175.337662 119.5,175.337662 C124.846774,175.337662 128.935484,171.285714 128.935484,165.987013 C128.935484,163.181818 131.137097,161 133.967742,161 C136.798387,161 139,163.181818 139,165.987013 C138.370968,176.584416 129.564516,185 119.185484,185 L119.185484,185 Z" id="路径" fill="#FEFEFE" fill-rule="nonzero"></path>
                <path d="M147.693548,185 C137.274194,185 129,176.584416 129,165.987013 C129,163.181818 131.145161,161 133.903226,161 C136.66129,161 138.806452,163.181818 138.806452,165.987013 C138.806452,171.285714 142.790323,175.337662 148,175.337662 C153.209677,175.337662 157.193548,171.285714 157.193548,165.987013 C157.193548,163.181818 159.33871,161 162.096774,161 C164.854839,161 167,163.181818 167,165.987013 C166.693548,176.584416 158.112903,185 147.693548,185 L147.693548,185 Z" id="路径" fill="#FEFEFE" fill-rule="nonzero"></path>
                <path d="M139.160295,141 L127.626281,141 C120.104099,141 115.590789,149.170213 119.35188,155.808511 L125.118887,161.93617 C129.381457,166.021277 137.655858,166.021277 141.918428,161.93617 L147.685435,155.808511 C151.446527,149.425532 146.682478,141 139.160295,141 L139.160295,141 Z" id="形状结合" fill="#383F51" fill-rule="nonzero"></path>
                <path d="M95,99 C95,104.522847 99.4771525,109 105,109 C110.522847,109 115,104.522847 115,99 C115,93.4771525 110.522847,89 105,89 C99.4771525,89 95,93.4771525 95,99 Z" id="路径" fill="#383F51" fill-rule="nonzero"></path>
                <path d="M153,99 C153,104.522847 157.477153,109 163,109 C168.522847,109 173,104.522847 173,99 C173,93.4771525 168.522847,89 163,89 C157.477153,89 153,93.4771525 153,99 L153,99 Z" id="路径" fill="#383F51" fill-rule="nonzero"></path>
            </g>
        </g>
    </g>
</svg>