<?xml version="1.0" encoding="UTF-8"?>
<svg width="390px" height="390px" viewBox="0 0 390 390" version="1.1" xmlns="http://www.w3.org/2000/svg" xmlns:xlink="http://www.w3.org/1999/xlink">
    <title>木鱼柯基</title>
    <g id="木鱼柯基" stroke="none" stroke-width="1" fill="none" fill-rule="evenodd">
        <g id="编组-4">
            <rect id="矩形" fill="#EFEFEF" x="0" y="0" width="390" height="390"></rect>
            <g id="编组" transform="translate(79.000000, 77.000000)">
                <path d="M26.513108,93.7931946 C34.510992,68.5614667 78.0346967,44.7856899 117.037021,47.164695 C156.039345,49.5437001 202.264322,62.3903275 210.931505,115.680041 C219.598688,168.969755 174.336732,235.731775 118.722306,236.980752 C63.8373692,238.210698 -0.932971964,180.38898 26.513108,93.7931946 Z" id="路径" fill="#FFFFFF" fill-rule="nonzero"></path>
                <path d="M28.4520586,85.7951313 C32.4282478,73.062221 67.7547897,46.3689284 113.908875,46.0047864 C166.55612,45.5924138 196.591493,71.892626 200.933088,99.0175835 C209.58743,153.035991 164.392534,220.710927 108.860509,221.976984 C54.061698,223.226159 1.04664335,173.575044 28.4520586,85.7951313 Z" id="路径" fill="#FFFFFF" fill-rule="nonzero"></path>
                <path d="M28.4520586,85.7951313 C32.4282478,73.062221 67.7547897,46.3689284 113.908875,46.0047864 C166.55612,45.5924138 196.591493,71.892626 200.933088,99.0175835 C209.58743,153.035991 164.392534,220.710927 108.860509,221.976984 C54.061698,223.226159 1.04664335,173.575044 28.4520586,85.7951313 Z" id="路径" fill="#FFFFFF" fill-rule="nonzero"></path>
                <path d="M120.978608,46.0021927 C120.978608,46.0021927 111.128356,111.963366 134.086347,153.467026 C151.161414,184.347726 187.21742,199 187.21742,199 C187.21742,199 243.571947,125.990615 189.648381,71.0303819 C164.366391,45.2610559 120.978608,46.0021927 120.978608,46.0021927 Z M108.021392,46.0021927 C108.021392,46.0021927 117.871644,111.963366 94.9136529,153.467026 C77.8385862,184.347726 41.7825797,199 41.7825797,199 C41.7825797,199 -14.5719471,125.990615 39.3516192,71.0303819 C64.6336086,45.2610559 108.021392,46.0021927 108.021392,46.0021927 Z" id="形状" fill="#FFBD7B" fill-rule="nonzero"></path>
                <ellipse id="椭圆形" fill="#FFFFFF" transform="translate(82.142857, 116.861751) rotate(10.000000) translate(-82.142857, -116.861751) " cx="82.1428571" cy="116.861751" rx="10.921659" ry="6.55299539"></ellipse>
                <ellipse id="椭圆形备份" fill="#FFFFFF" transform="translate(146.580645, 116.861751) rotate(-10.000000) translate(-146.580645, -116.861751) " cx="146.580645" cy="116.861751" rx="10.921659" ry="6.55299539"></ellipse>
                <path d="M189.397094,72.3011647 C178.629031,61.5391015 164.615562,55.4585358 152,52 C180.965428,61.2186855 197.615021,80.4803328 200.79655,100.184692 C205.756787,130.905491 193.409015,165.980033 171.602642,191.097221 C180.42985,196.404875 186.940315,199 186.940315,199 C186.940315,199 243.900743,126.715624 189.397094,72.3011647 Z" id="路径" fill="#FFBD7B" fill-rule="nonzero"></path>
                <path d="M82,50.1797208 C82,50.1797208 46.0268983,0 20.8457271,0 C-4.33544408,0 0.343457348,47.6392209 0.343457348,47.6392209 L6.09915362,66.9111427 L8.25753972,87.2739279 L19.4092012,116 C19.4092012,116 25.8843596,92.7282454 39.9138692,76.0016718 C53.9433789,59.2750982 82,50.1797208 82,50.1797208 Z" id="路径" fill="#FFBD7B" fill-rule="nonzero"></path>
                <path d="M232,50.1797208 C232,50.1797208 196.026898,0 170.845727,0 C145.664556,0 150.343457,47.6392209 150.343457,47.6392209 L156.099154,66.9111427 L158.25754,87.2739279 L169.409201,116 C169.409201,116 175.88436,92.7282454 189.913869,76.0016718 C203.943379,59.2750982 232,50.1797208 232,50.1797208 Z" id="路径" fill="#FFBD7B" fill-rule="nonzero" transform="translate(191.000000, 58.000000) scale(-1, 1) translate(-191.000000, -58.000000) "></path>
                <path d="M147,135 C147,138.313708 149.686292,141 153,141 C156.313708,141 159,138.313708 159,135 C159,131.686292 156.313708,129 153,129 C149.686292,129 147,131.686292 147,135 Z" id="路径" fill="#FFFFFF" fill-rule="nonzero"></path>
                <path d="M174,61.0727887 C174,61.0727887 191.475267,32.7841596 200.332594,37.538551 C209.189921,42.2929425 193.150977,77 193.150977,77 L174,61.0727887 Z" id="路径" fill="#FF7B7B" fill-rule="nonzero"></path>
                <path d="M72,135 C72,138.313708 74.6862915,141 78,141 C81.3137085,141 84,138.313708 84,135 C84,131.686292 81.3137085,129 78,129 C74.6862915,129 72,131.686292 72,135 L72,135 Z" id="路径" fill="#FFFFFF" fill-rule="nonzero"></path>
                <path d="M104.421012,194.883491 L109.722362,192.479523 L123.216709,192.479523 L129,198.00865 L125.867384,215.557619 L107.071687,217 L102.734219,199.931825 L104.421012,194.883491 Z M55.1401416,59.8189348 C55.1401416,59.8189348 34.1757108,30.2501244 26.2236853,35.6614571 C18.2716598,41.0727898 34.1757108,73.8845535 34.5371665,75.6851258 C34.8986222,77.485698 55.1401416,59.8189348 55.1401416,59.8189348 Z" id="形状" fill="#FF7B7B" fill-rule="nonzero"></path>
                <path d="M119.903628,189.033123 L111.096372,189.033123 C105.108688,189.033123 100.039228,193.029547 98.743619,198.751808 C98.4470072,200.111425 98.3827963,201.511679 98.5537245,202.892854 L99.3229172,209.45393 C99.3541656,209.721484 99.3926253,209.979395 99.4358924,210.227665 C100.906973,218.369956 104.776974,222 111.985751,222 L119.011845,222 C126.223026,222 130.090623,218.369956 131.5593,210.230075 C131.602567,209.989037 131.641027,209.735946 131.672275,209.458751 L132.441468,202.895265 C132.612671,201.513297 132.548459,200.112204 132.251574,198.751808 C130.970387,193.027136 125.891312,189.033123 119.903628,189.033123 L119.903628,189.033123 Z M125.283169,202.049219 L124.513976,208.610295 C124.499554,208.735635 124.482728,208.851333 124.465902,208.938107 C123.461144,214.496462 121.821802,214.766426 119.014249,214.766426 L111.988155,214.766426 C109.178198,214.766426 107.538856,214.496462 106.536502,208.940518 C106.518875,208.842495 106.50285,208.732421 106.488427,208.610295 L105.719235,202.046808 C105.643865,201.477692 105.664995,200.899894 105.781732,200.337843 C106.320167,197.927455 108.505154,196.264287 111.098776,196.264287 L119.903628,196.264287 C122.494846,196.264287 124.682237,197.939507 125.220672,200.337843 C125.337455,200.899889 125.358585,201.477695 125.283169,202.046808 L125.283169,202.049219 Z M78.5547158,129 C72.1732225,129 67,134.187558 67,140.586735 C67,146.985912 72.1732225,152.17347 78.5547158,152.17347 C84.9362091,152.17347 90.1094315,146.985912 90.1094315,140.586735 C90.1094315,137.513742 88.8920632,134.56661 86.7251336,132.393676 C84.5582041,130.220742 81.6192169,129 78.5547158,129 L78.5547158,129 Z M152.445284,129 C146.063791,129 140.890568,134.187558 140.890568,140.586735 C140.890568,146.985912 146.063791,152.17347 152.445284,152.17347 C158.826778,152.17347 164,146.985912 164,140.586735 C164,134.187558 158.826778,129 152.445284,129 L152.445284,129 Z" id="形状" fill="#192B3A" fill-rule="nonzero"></path>
            </g>
        </g>
    </g>
</svg>