<svg xmlns="http://www.w3.org/2000/svg" width="390" height="390" viewBox="0 0 390 390">
  <g fill="none" fill-rule="evenodd">
    <rect width="390" height="390" fill="#FDF3EE"/>
    <g transform="translate(76 106)">
      <path fill="#433937" d="M213.607644,60.681963 C209.237644,63.133963 203.610507,66.5860778 199.254507,69.1160778 C193.236507,72.6230778 187.080507,75.8880778 180.876507,79.0550778 C180.865507,79.0610778 180.854507,79.0660778 180.844507,79.0720778 C170.027507,84.5930778 158.869507,89.4470778 147.456507,93.5980778 C136.044507,97.7490778 124.376507,101.200078 112.539507,103.914078 C105.496507,105.530078 98.3935069,106.884078 91.2495069,107.972078 C87.1325069,108.599078 82.8865069,109.177078 79.2715069,111.244078 C75.6565069,113.312078 72.7845069,117.291078 73.3605069,121.416078 C73.8925069,125.218078 77.2485069,128.169078 80.9345069,129.244078 C84.6205069,130.319078 88.5755069,129.840078 92.3305069,129.043078 C105.488507,126.250078 117.512507,119.741078 129.326507,113.310078 C141.399507,106.738078 153.473507,100.166078 165.546507,93.5940778 C177.620507,87.0230778 189.693507,80.4510778 201.767507,73.8790778 C204.860507,72.1950778 207.893507,70.4010778 210.963507,68.6750778 C213.765507,67.1010778 216.552507,65.3310778 219.847507,65.1360778 C221.176507,65.0580778 222.512507,65.0390778 223.839507,65.1550778 C226.391507,65.3740778 228.943507,66.1070778 230.919507,67.8010778 C234.007507,70.4500778 234.997507,74.7470778 235.692507,78.7550778 C238.181507,93.1130778 239.102507,107.934078 236.184507,122.210078 C233.265507,136.487078 226.236507,150.243078 214.910507,159.415078 C203.100507,168.982078 187.708507,172.876078 172.648507,174.945078 C146.449507,178.545078 119.620507,177.383078 93.7875069,171.722078 C71.5305069,166.846078 49.7945069,158.633078 27.0325069,157.609078 C19.2215069,157.256078 10.4415069,157.406078 4.87250686,151.917078 C-0.629493142,146.496078 -1.42749314,134.893078 2.25350686,128.176078 C4.47550686,124.124078 8.14550686,120.719078 11.8825069,117.309078 L13.0045069,116.286078 C15.4345069,114.064078 17.8325069,111.812078 19.8225069,109.352078 C26.7185069,100.827078 32.5075069,90.9120778 37.0275069,80.9230778 C47.9105069,56.8740778 64.3185069,34.9690778 86.0105069,19.9210778 C96.3575069,12.7430778 107.880507,7.23507776 120.013507,3.83607776 C130.866507,0.795077758 142.216507,-0.536922242 153.473507,0.198077758 C155.992507,0.362077758 158.503507,0.629077758 160.999507,1.00207776 C187.112507,4.91107776 211.634507,21.2160778 223.139507,44.9720778 C223.164507,45.0270778 223.191507,45.0810778 223.217507,45.1360778 C224.378507,47.5600778 225.385507,50.3020778 224.557507,52.8480778 C223.393507,56.4280778 217.970507,58.6140003 214.910507,60.0600003 C213.886507,60.544667 213.452219,60.7519879 213.607644,60.681963 Z"/>
      <path fill="#797775" d="M153.473507,0.198077758 C155.992507,0.362077758 158.503507,0.629077758 160.999507,1.00207776 C187.112507,4.91107776 211.634507,21.2160778 223.139507,44.9720778 L223.217507,45.1360778 C224.378507,47.5600778 225.385507,50.3020778 224.557507,52.8480778 C223.393507,56.4280778 217.970507,58.6140003 214.910507,60.0600003 C213.886507,60.544667 213.452219,60.7519879 213.607644,60.681963 C209.237644,63.133963 203.610507,66.5860778 199.254507,69.1160778 C193.236507,72.6230778 187.080507,75.8880778 180.876507,79.0550778 C180.865507,79.0610778 180.854507,79.0660778 180.844507,79.0720778 C170.027507,84.5930778 158.869507,89.4470778 147.456507,93.5980778 C136.044507,97.7490778 124.376507,101.200078 112.539507,103.914078 C105.496507,105.530078 98.3935069,106.884078 91.2495069,107.972078 C87.1325069,108.599078 82.8865069,109.177078 79.2715069,111.244078 C75.6565069,113.312078 72.7845069,117.291078 73.3605069,121.416078 C73.8925069,125.218078 77.2485069,128.169078 80.9345069,129.244078 C84.6205069,130.319078 88.5755069,129.840078 92.3305069,129.043078 C104.2048,126.522566 115.155567,120.975757 125.861896,115.191026 L127.596022,114.251316 C128.173422,113.937678 128.750214,113.623785 129.326507,113.310078 L165.546507,93.5940778 C177.620507,87.0230778 189.693507,80.4510778 201.767507,73.8790778 C204.860507,72.1950778 207.893507,70.4010778 210.963507,68.6750778 C213.765507,67.1010778 216.552507,65.3310778 219.847507,65.1360778 C221.176507,65.0580778 222.512507,65.0390778 223.839507,65.1550778 C226.391507,65.3740778 228.943507,66.1070778 230.919507,67.8010778 C234.007507,70.4500778 234.997507,74.7470778 235.692507,78.7550778 C237.707625,90.3794513 238.69497,102.307306 237.449384,114.003725 C212.990832,141.60365 177.276987,159 137.500007,159 C91.3277207,159 50.6301357,135.560018 26.6577325,99.9305341 C30.622132,93.864906 34.0923729,87.4095939 37.0275069,80.9230778 C47.9105069,56.8740778 64.3185069,34.9690778 86.0105069,19.9210778 C96.3575069,12.7430778 107.880507,7.23507776 120.013507,3.83607776 C130.866507,0.795077758 142.216507,-0.536922242 153.473507,0.198077758 Z"/>
    </g>
  </g>
</svg>
