<?xml version="1.0" encoding="UTF-8"?>
<svg width="390px" height="390px" viewBox="0 0 390 390" version="1.1" xmlns="http://www.w3.org/2000/svg" xmlns:xlink="http://www.w3.org/1999/xlink">
    <title>木鱼</title>
    <defs>
        <polygon id="path-1" points="0 0 238 0 238 177 0 177"></polygon>
    </defs>
    <g id="木鱼" stroke="none" stroke-width="1" fill="none" fill-rule="evenodd">
        <g id="编组-4">
            <rect id="矩形" fill="#000000" x="0" y="0" width="390" height="390"></rect>
            <g id="编组" transform="translate(76.000000, 106.000000)">
                <mask id="mask-2" fill="white">
                    <use xlink:href="#path-1"></use>
                </mask>
                <g id="Clip-2"></g>
                <path d="M224.557652,52.8468793 C223.311484,56.6825857 218.715929,58.0868173 214.771893,58.933545 C183.846181,65.572728 152.919472,72.2109136 121.99376,78.8500966 C108.42061,81.7642761 94.6768467,84.7372976 82.2870065,90.9965004 C78.5943991,92.8614954 74.9287304,95.116444 72.6109982,98.5412531 C70.2942637,101.966062 69.6577105,106.820036 72.0762137,110.175033 C74.4538098,113.474179 79.1042403,114.444575 83.0881855,113.618791 C87.071133,112.793007 90.575169,110.516117 94.0213365,108.35392 C131.06215,85.1172779 173.368994,70.3219828 216.822233,65.4081696 C221.702142,64.8566497 227.191665,64.6033295 230.919193,67.8007488 C234.007175,70.4486429 234.997923,74.7471075 235.692345,78.7543536 C238.181687,93.1118236 239.102594,107.933049 236.184227,122.209736 C233.264862,136.486423 226.236835,150.24151 214.910578,159.414892 C203.10042,168.981219 187.708403,172.875768 172.648631,174.944217 C146.449178,178.544555 119.620155,177.382673 93.7868694,171.721864 C71.5304541,166.844952 49.794855,158.63299 27.0325894,157.607741 C19.2213429,157.255686 10.4412983,157.405285 4.87295409,151.917013 C-0.629539768,146.495562 -1.42772564,134.8927 2.2539067,128.175726 C6.1410719,121.084755 14.4657345,115.975466 19.8225594,109.351243 C26.7188854,100.826121 32.5071468,90.9117278 37.027872,80.922535 C47.9101386,56.8740718 64.3188447,34.968857 86.0105436,19.9202417 C107.70324,4.87162643 134.886458,-2.90650007 161.000106,1.00201099 C187.112757,4.91052205 211.634025,21.215765 223.138877,44.9710151 C223.164818,45.0258679 223.191756,45.0807207 223.217697,45.1355735 C224.37806,47.5590697 225.38577,50.3017095 224.557652,52.8468793 Z" id="Fill-1" fill="#FFFFFF" mask="url(#mask-2)"></path>
            </g>
        </g>
    </g>
</svg>