<?xml version="1.0" encoding="UTF-8"?>
<svg width="390px" height="390px" viewBox="0 0 390 390" version="1.1" xmlns="http://www.w3.org/2000/svg" xmlns:xlink="http://www.w3.org/1999/xlink">
    <title>木鱼麋鹿</title>
    <g id="木鱼麋鹿" stroke="none" stroke-width="1" fill="none" fill-rule="evenodd">
        <g id="编组-4">
            <rect id="矩形" fill="#E6DFD4" x="0" y="0" width="390" height="390"></rect>
            <g id="编组" transform="translate(53.000000, 74.000000)" fill-rule="nonzero">
                <path d="M124,220 C124,226.430781 127.43078,232.373067 133,235.588457 C138.569219,238.803848 145.430781,238.803848 151,235.588457 C156.56922,232.373067 160,226.430781 160,220 C160,213.569219 156.56922,207.626933 151,204.411543 C145.430781,201.196152 138.569219,201.196152 133,204.411543 C127.43078,207.626933 124,213.569219 124,220 L124,220 Z" id="路径" fill="#FFDA00"></path>
                <path d="M148.976739,67.1449667 C172.93142,68.9295034 191.270311,89.5419855 198.850723,110.855278 C202.082962,119.944132 204.755427,130.445444 204.780707,140.115899 C204.780707,142.897464 207.07036,144.266572 208.807463,146.116132 C216.774299,154.58365 222.137287,165.402856 220.793832,177.2805 C219.024226,192.904227 208.482433,201.422319 194.383372,206.071507 C162.443798,216.608943 127.932879,217.002697 96.2894434,205.081703 C95.4940563,204.838979 94.7446554,204.465398 94.0720193,203.976302 C91.4103883,201.447606 88.420116,199.316277 85.6068042,196.96459 C72.6056208,186.127323 69.9078753,169.148938 79.0159265,154.872644 C81.334471,151.24216 83.8335874,147.734498 87.0766602,144.85901 C88.8498773,143.287606 89.6046682,141.398309 89.8863605,139.079134 C91.6415203,124.582483 95.3215776,110.638532 102.04969,97.5904626 C105.115802,91.6444154 108.803082,86.1390836 113.544903,81.3815233 C117.632075,76.9435934 122.536996,73.3362692 127.990662,70.7573891 C134.671826,67.531496 141.681631,66.6031034 148.976739,67.1449667 L148.976739,67.1449667 Z" id="形状" fill="#B10000"></path>
                <path d="M132.911426,114.869001 C132.734381,116.415618 132.307679,117.923739 131.647749,119.335305 C128.360727,126.365195 119.916734,129.763944 112.626851,127.087792 C106.366902,124.78928 102.586827,118.845101 103.036053,111.996767 C103.507193,104.818 109.113391,99.5746314 115.997874,98.1984287 C121.662508,97.0691437 128.050286,100.921785 130.86982,105.649532 C132.548883,108.416926 133.266249,111.656402 132.911426,114.869001 L132.911426,114.869001 Z" id="路径" fill="#B10000"></path>
                <path d="M111,114 C111,118.970563 115.029437,123 120,123 C124.970563,123 129,118.970563 129,114 C129,109.029437 124.970563,105 120,105 C115.029437,105 111,109.029437 111,114 L111,114 Z" id="路径" fill="#B10000"></path>
                <path d="M155,114 C155,118.970563 159.029437,123 164,123 C168.970563,123 173,118.970563 173,114 C173,109.029437 168.970563,105 164,105 C159.029437,105 155,109.029437 155,114 L155,114 Z" id="路径" fill="#B10000"></path>
                <path d="M141.203215,194.979755 C138.064775,194.900656 134.937269,194.571539 131.849449,193.995429 C127.659059,193.272368 123.782598,191.275515 120.731093,188.268109 C114.633929,182.219972 113.916616,170.95126 116.183326,163.040195 C117.259296,159.277882 119.346678,155.74889 122.449058,153.415673 C125.849123,150.863716 130.160177,149.959594 134.35646,149.474723 C140.40683,148.727813 146.531124,148.862849 152.543939,149.875744 C157.66197,150.779866 163.185283,152.832368 165.918247,157.633692 C167.586628,160.607702 168.590701,163.918475 168.859231,167.331128 C169.436669,174.239639 168.346352,182.278302 163.551113,187.528042 C160.800876,190.501323 157.277762,192.621194 153.390369,193.641801 C149.407618,194.654049 145.306751,195.104258 141.203215,194.979755 L141.203215,194.979755 Z" id="路径" fill="#B10000"></path>
                <path d="M141.828814,190.983522 C139.213225,190.923839 136.606429,190.662997 134.032392,190.203396 C130.541327,189.620604 127.312063,188.01364 124.770038,185.594212 C119.69033,180.727372 119.103228,171.662882 120.981225,165.296626 C121.874641,162.269165 123.617714,159.420632 126.20315,157.552624 C129.036555,155.505688 132.632099,154.772084 136.129185,154.382021 C141.170815,153.781123 146.274041,153.889574 151.284438,154.704091 C155.550955,155.419803 160.152959,157.083833 162.432081,160.945098 C163.822371,163.337545 164.659002,166.000977 164.882594,168.746356 C165.363944,174.303859 164.455942,180.78105 160.459273,184.996593 C158.163696,187.388473 155.223777,189.092214 151.980937,189.909954 C148.663075,190.722983 145.247011,191.084225 141.828814,190.983522 L141.828814,190.983522 Z" id="路径" fill="#B10000"></path>
                <path d="M136.992614,159.47751 C138.701484,157.765799 137.534539,155.417172 136.439851,153.918973 C136.186953,153.944305 135.937667,153.966018 135.684769,153.994968 C132.220063,154.389422 128.661423,155.131284 125.850639,157.20126 C123.289141,159.090294 121.558594,161.97089 120.677063,165.032428 C118.816455,171.470343 119.398121,180.636863 124.430796,185.558484 C125.919842,187.012754 127.663909,188.179443 129.575469,189 C129.4996,186.065121 126.428692,177.499329 126.649075,172.32077 C126.930876,165.814097 134.286603,162.198877 136.992614,159.47751 L136.992614,159.47751 Z M0.0156879076,17.3765508 C-0.363659588,8.77456989 6.20808263,4.04836582 11.9850015,6.81315896 C17.7619204,9.5779521 15.0920374,26.2535632 17.0429668,33.462291 C18.9938962,40.6710187 26.1581428,38.3549615 30.1105815,37.9568892 C34.0630203,37.5588169 29.4277562,32.9122272 28.6654487,24.346435 C27.9031411,15.7806428 36.3354918,17.0399986 40.4649591,23.1485993 C40.7420081,23.5666448 41.268973,23.7400497 41.7395499,23.5680207 C42.2101268,23.3959917 42.5017007,22.9233532 42.4447912,22.4248313 C42.256924,20.5792234 42.083508,18.5237226 41.8884151,16.1352888 C40.9201761,4.31977886 49.7029715,-2.56687217 57.7848774,0.896357064 C65.8667833,4.3595863 63.0596126,27.4586368 66.1160689,37.2584533 C69.1725253,47.0582699 78.8910443,43.457525 84.30668,42.6867121 C89.7223157,41.9158992 83.1072197,35.7855858 81.6115068,24.0460714 C80.1157939,12.3065571 91.7671785,13.5514379 97.7644804,21.7010635 C101.258089,26.4562183 103.071731,32.8868955 105.015435,38.3730558 C109.405027,50.7639612 112.40729,63.5022752 116.457275,75.9836517 C117.346032,78.7267317 117.833764,81.3793408 115.843094,83.7460617 C114.134224,85.7798494 111.442664,86.8510258 108.928133,87.4734661 C104.491574,88.5591178 100.542749,88.6749206 97.6597082,84.6145831 C95.7123917,81.871503 95.2535619,76.6097107 95.2896902,73.3382801 C95.2896902,71.8219866 95.4089136,70.2007466 94.975374,68.7278791 C93.7289468,64.4865996 88.4253089,64.8701964 84.9208614,65.286363 C70.3611471,67.0161681 61.9432477,63.7664506 56.6215455,58.6856003 C56.5314712,58.5983529 56.4261534,58.5284332 56.3108418,58.4793264 C50.5303101,56.0510852 41.4476494,53.5142791 29.9371655,54.3828004 C9.65472466,55.9135695 6.12137451,44.9738185 3.35755778,36.7988607 C0.593741055,28.6239029 0.376971125,25.9821504 0.0156879076,17.3765508 Z M283.984312,17.3765508 C284.36366,8.77456989 277.791917,4.04836605 272.014998,6.81315896 C266.23808,9.57795187 268.907963,26.2535632 266.957033,33.462291 C265.006104,40.6710187 257.841857,38.3549615 253.889418,37.9568892 C249.93698,37.5588169 254.572244,32.9122272 255.334552,24.346435 C256.096859,15.7806428 247.664508,17.0399986 243.535041,23.1485993 C243.257992,23.5666448 242.731027,23.7400497 242.26045,23.5680207 C241.789873,23.3959917 241.498299,22.9233532 241.555209,22.4248313 C241.743076,20.5792234 241.916492,18.5237226 242.111585,16.1352888 C243.079824,4.31977886 234.297029,-2.56687217 226.215123,0.896357064 C218.133217,4.3595863 220.940387,27.4586368 217.883931,37.2584533 C214.827475,47.0582699 205.108956,43.457525 199.69332,42.6867121 C194.277685,41.9158992 200.89278,35.7855858 202.388493,24.0460714 C203.884206,12.3065571 192.232821,13.5514379 186.23552,21.7010635 C182.741911,26.4562183 180.928269,32.8868955 178.984565,38.3730558 C174.594973,50.7639612 171.59271,63.5022752 167.542725,75.9836517 C166.653968,78.7267317 166.166236,81.3793408 168.156906,83.7460617 C169.865776,85.7798494 172.557336,86.8510258 175.071867,87.4734661 C179.508426,88.5591178 183.457251,88.6749206 186.340292,84.6145831 C188.287608,81.871503 188.746438,76.6097107 188.71031,73.3382801 C188.71031,71.8219866 188.591086,70.2007466 189.024626,68.7278791 C190.271053,64.4865996 195.574691,64.8701964 199.079139,65.286363 C213.638853,67.0161681 222.056752,63.7664506 227.378455,58.6856003 C227.468529,58.5983529 227.573847,58.5284332 227.689158,58.4793264 C233.46969,56.0510852 242.552351,53.5142791 254.062834,54.3828004 C274.345275,55.9135695 277.878625,44.9738185 280.642442,36.7988607 C283.406259,28.6239029 283.623029,25.9821504 283.984312,17.3765508 L283.984312,17.3765508 Z" id="形状" fill="#B10000"></path>
                <path d="M142.00838,217 C140.165216,217.003263 138.561033,218.23555 138.118064,219.988426 C137.675095,221.741303 138.507119,223.564535 140.135811,224.409959 L140.135811,237.906671 C141.38218,238.03111 142.638231,238.03111 143.884599,237.906671 L143.884599,224.399231 C145.501749,223.548076 146.323774,221.730799 145.881177,219.985333 C145.43858,218.239866 143.844083,217.010754 142.00838,217 L142.00838,217 Z" id="路径" fill="#9E5C3C"></path>
                <path d="M143.587396,216.99769 C148.41528,217.016698 153.236285,216.62921 158,215.83928 C154.903909,209.90401 148.844215,206.135175 142.185707,206.00356 C135.5272,205.871944 129.325188,209.398407 126,215.206751 C131.780939,216.441767 137.677859,217.042256 143.587396,216.99769 L143.587396,216.99769 Z" id="路径" fill="#F4CB00"></path>
                <path d="M0.0156879076,17.3529702 C-0.363659588,8.76266251 6.20808263,4.04287205 11.9850015,6.80391328 C17.7619204,9.5649545 15.0920374,26.2179363 17.0429668,33.4168815 C18.9938962,40.6158268 26.1581428,38.3029125 30.1105815,37.9053804 C34.0630203,37.5078484 29.4277562,32.8675643 28.6654487,24.3133961 C27.9031411,15.7592279 36.3354918,17.0168747 40.4649591,23.1171859 C40.7420081,23.5346641 41.268973,23.7078337 41.7395499,23.5360381 C42.2101268,23.3642426 42.5017007,22.8922455 42.4447912,22.3944 C42.256924,20.5512967 42.083508,18.4985852 41.8884151,16.1133927 C40.9201761,4.31391678 49.7029715,-2.56338884 57.7848774,0.895140678 C65.8667833,4.3536702 63.0596126,27.4213745 66.1160689,37.2078924 C69.1725253,46.9944103 78.8910443,43.3985517 84.30668,42.6287848 C89.7223157,41.859018 83.1072197,35.7370236 81.6115068,24.0134401 C80.1157939,12.2898567 91.7671785,13.5330481 97.7644804,21.6716144 C101.258089,26.4203164 103.071731,32.8422669 105.015435,38.3209823 C109.405027,50.6950728 112.40729,63.4161005 116.457275,75.8805393 C117.346032,78.6198969 117.833764,81.2689064 115.843094,83.6324155 C114.134224,85.6634433 111.442664,86.7331661 108.928133,87.3547617 C104.491574,88.4389402 100.542749,88.5545858 97.6597082,84.4997583 C95.7123917,81.7604007 95.2535619,76.5057488 95.2896902,73.2387577 C95.2896902,71.7245218 95.4089136,70.1054819 94.975374,68.6346131 C93.7289468,64.3990891 88.4253089,64.7821654 84.9208614,65.1977672 C70.3611471,66.9252249 61.9432477,63.6799174 56.6215455,58.605962 C56.5314712,58.518833 56.4261534,58.4490082 56.3108418,58.399968 C50.5303101,55.975022 41.4476494,53.4416584 29.9371655,54.3090012 C9.65472466,55.8376929 6.12137451,44.9127876 3.35755778,36.7489234 C0.593741055,28.5850593 0.376971125,25.9468918 0.0156879076,17.3529702 Z M283.984312,17.3529702 C284.36366,8.76266251 277.791917,4.04287229 272.014998,6.80391328 C266.23808,9.56495427 268.907963,26.2179363 266.957033,33.4168815 C265.006104,40.6158268 257.841857,38.3029125 253.889418,37.9053804 C249.93698,37.5078484 254.572244,32.8675643 255.334552,24.3133961 C256.096859,15.7592279 247.664508,17.0168747 243.535041,23.1171859 C243.257992,23.5346641 242.731027,23.7078337 242.26045,23.5360381 C241.789873,23.3642426 241.498299,22.8922455 241.555209,22.3944 C241.743076,20.5512967 241.916492,18.4985852 242.111585,16.1133927 C243.079824,4.31391678 234.297029,-2.56338884 226.215123,0.895140678 C218.133217,4.3536702 220.940387,27.4213745 217.883931,37.2078924 C214.827475,46.9944103 205.108956,43.3985517 199.69332,42.6287848 C194.277685,41.859018 200.89278,35.7370236 202.388493,24.0134401 C203.884206,12.2898567 192.232821,13.5330481 186.23552,21.6716144 C182.741911,26.4203164 180.928269,32.8422669 178.984565,38.3209823 C174.594973,50.6950728 171.59271,63.4161005 167.542725,75.8805393 C166.653968,78.6198969 166.166236,81.2689064 168.156906,83.6324155 C169.865776,85.6634433 172.557336,86.7331661 175.071867,87.3547617 C179.508426,88.4389402 183.457251,88.5545858 186.340292,84.4997583 C188.287608,81.7604007 188.746438,76.5057488 188.71031,73.2387577 C188.71031,71.7245218 188.591086,70.1054819 189.024626,68.6346131 C190.271053,64.3990891 195.574691,64.7821654 199.079139,65.1977672 C213.638853,66.9252249 222.056752,63.6799174 227.378455,58.605962 C227.468529,58.518833 227.573847,58.4490082 227.689158,58.399968 C233.46969,55.975022 242.552351,53.4416584 254.062834,54.3090012 C274.345275,55.8376929 277.878625,44.9127876 280.642442,36.7489234 C283.406259,28.5850593 283.623029,25.9468918 283.984312,17.3529702 L283.984312,17.3529702 Z" id="形状" fill="#9E5C3C"></path>
                <path d="M149.144755,67.1449667 C173.043554,68.9295034 191.339664,89.5419855 198.902393,110.855278 C202.127091,119.944132 204.793323,130.445444 204.818544,140.115899 C204.818544,142.897464 207.102855,144.266572 208.835905,146.116132 C216.784157,154.58365 222.134634,165.402856 220.794313,177.2805 C219.028835,192.904227 208.511634,201.422319 194.445463,206.071507 C162.580398,216.608943 128.149986,217.002697 96.5803678,205.081703 C95.7868361,204.838979 95.0391834,204.465398 94.3681165,203.976302 C91.7126944,201.447606 88.7293978,199.316277 85.922649,196.96459 C72.9517947,186.127323 70.2603425,169.148938 79.3471465,154.872644 C81.6602822,151.24216 84.1535687,147.734498 87.3890761,144.85901 C89.1581566,143.287606 89.9111868,141.398309 90.192222,139.079134 C91.9432873,124.582483 95.6147597,110.638532 102.327177,97.5904626 C105.386137,91.6444154 109.064815,86.1390836 113.795574,81.3815233 C117.873211,76.9435934 122.76669,73.3362692 128.207634,70.7573891 C134.873212,67.531496 141.866664,66.6031034 149.144755,67.1449667 Z" id="路径" fill="#D67F5A"></path>
                <path d="M99.9278742,85.6119683 L93.7721743,93.0696952 C90.1729005,96.5080455 86.3853345,99.6889795 81.7142449,101.527669 C72.4589691,105.135179 64.5000115,102.395531 57.3195685,96.173404 C56.1608486,95.1694791 55.1107585,94.036846 54.0135956,92.9630512 C53.8796186,91.8230634 54.7631426,91.3523587 55.4619955,90.8485576 C60.2924095,87.3844656 65.1554122,83.9755343 70.3298212,81.0446623 C71.4910446,80.4144178 72.7022937,79.8842409 73.9508209,79.4597116 C76.2827449,78.6212689 78.4553447,78.9522331 80.5337989,80.2687351 C82.1306597,81.2763374 83.6152698,82.4457442 85.1650577,83.5268938 C88.4239577,85.803192 91.9978845,86.1231241 95.7456193,85.2626173 C96.6327643,85.0566839 97.4836991,84.7588162 98.3998122,85.0272648 L99.9278742,85.6119683 Z M191.795054,96.7176562 C189.481235,93.9890402 187.475201,90.9110731 185.668322,88.1089095 C185.20242,87.3734335 184.747381,86.6379574 184.303205,85.9024813 C185.005679,84.8948791 185.682806,85.6781612 186.142674,86.0789956 C190.310444,89.7196019 195.22052,88.0978772 199.71056,86.0789956 C204.05576,84.1263067 207.727454,82.5303239 212.5289,83.9681794 C217.920568,85.5825492 223.029799,88.9326425 227.505355,92.3121549 C228.479404,93.0476308 229.127563,94.0294913 229.87711,94.9451589 C230.916337,96.2138551 225.046696,100.384004 224.206624,100.972385 C220.332154,103.678937 215.700896,105.786076 210.946523,105.984654 C206.391305,106.1722 201.84695,104.624023 197.990585,102.255791 C195.653005,100.750056 193.562425,98.8813048 191.795054,96.7176562 L191.795054,96.7176562 Z" id="形状" fill="#E19D7C"></path>
                <path d="M230,95 C226.821825,92.9418545 223.91844,90.4828182 220.57756,88.6573325 C217.789877,87.1325152 214.991347,85.6685474 211.899948,84.8094954 C208.862783,83.9683402 206.064253,84.3298579 203.251261,85.6363329 C200.376802,86.971443 197.574657,88.4640459 194.425407,89.1835019 C191.409936,89.8743228 187.801496,88.9615802 185.715253,86.6063457 C185.50916,86.3736857 185.284989,86.1052321 184.992119,86.0873353 C184.847492,86.0873353 184.69925,86.1302878 184.554623,86.1088115 C184.409996,86.0873351 183.683246,84.9347737 183.719403,84.8918212 C185.259679,83.0162242 187.016895,81.2766439 187.530321,78.774655 C190.59641,78.205533 193.658884,77.636411 196.775593,77.4431242 C206.114873,76.8632642 216.231522,77.2426787 223.480944,83.8860145 C224.028116,84.3871281 224.549978,84.9144906 225.04653,85.4681018 C227.515616,88.1589292 229.224224,91.4467798 230,95 Z M99.7495774,85.4000935 C98.5341487,86.1008392 97.1998393,86.5763211 95.8121109,86.8032119 C91.3684504,87.4797154 86.494525,85.7902463 83.0415587,83.0484387 C78.3411855,79.3044037 76.0380027,79.2113397 70.748275,82.2216012 C65.0336488,85.4430441 59.5599249,89.066335 54.3692825,93.0635535 C53.5810661,92.3977881 54.2608124,91.7928723 54.517525,91.2738618 C58.5526147,82.8945253 66.5721743,77.0995036 75.7740588,75.4386696 C79.8633834,74.7013166 83.9780178,75.0341994 88.0854207,75.4171932 C91.7010924,75.7536551 100.512484,76.4910082 102.114227,80.37106 C103.032607,82.5723808 101.640574,84.2869054 99.7495774,85.4000935 L99.7495774,85.4000935 Z" id="形状" fill="#9E5C3C"></path>
                <path d="M148.23025,67.0588791 C141.068703,66.9431913 133.842411,66.8600405 126.770788,68.2193729 C123.226415,68.8893347 119.774151,69.9816164 116.487079,71.473094 C103.667515,77.3370226 94.7146814,89.6903168 88.9559485,102.076148 C87.3503957,105.533709 85.9346656,109.077148 84.7151327,112.69051 C82.317308,119.859784 80.614033,127.245072 79.6290316,134.743508 C78.9096397,140.166377 77.2334564,144.504671 73.2768005,148.45975 C65.072135,156.688049 60.486011,169.992153 64.4426669,181.311488 C68.8777184,193.993769 84.1899768,202.601669 96.5023704,205.605938 C96.7361729,205.663782 98.1857476,205.833699 98.2576868,206 C97.9663331,205.323949 93.6248024,202.688435 93.0960493,202.247375 C89.0314846,198.845429 84.6359997,195.805007 81.4059298,191.473943 C73.6904509,181.134341 72.3811575,170.176531 78.2370081,158.539055 C80.9152383,153.280014 84.5145747,148.549167 88.8624277,144.573361 C89.8086812,143.76717 90.4154217,142.630208 90.5601926,141.391945 C90.9738431,138.036997 91.4918052,134.692895 92.0637218,131.359638 C93.7507342,121.237336 96.7384109,111.378071 100.95181,102.02915 C104.231983,94.6845065 108.645894,87.9067501 114.030356,81.9464607 L116.764045,79.4157886 C125.523953,71.3021897 137.092587,66.9519527 149,67.2938699 C148.756275,67.1780123 148.496913,67.0988338 148.23025,67.0588791 L148.23025,67.0588791 Z" id="路径" fill="#D67F5A"></path>
                <path d="M151.47483,111.134037 C151.947857,107.865884 153.452722,104.837394 155.767233,102.495722 C160.009738,98.3067929 166.325459,97.0660446 171.822262,99.3416479 C174.401448,100.387673 176.631948,102.149963 178.253652,104.42301 C181.762435,109.385897 181.922197,115.996259 178.657309,121.124903 C175.392422,126.253546 169.357999,128.871388 163.410595,127.739202 C160.165138,127.126422 157.22313,125.421631 155.067463,122.904649 C152.513664,119.932052 151.04559,116.182733 151.348583,112.251937 C151.37744,111.874464 151.419522,111.501831 151.47483,111.134037 L151.47483,111.134037 Z M132.541367,114.861579 C132.366512,116.407516 131.94509,117.914973 131.293324,119.325918 C128.046969,126.352716 119.707443,129.74997 112.50775,127.074995 C106.325247,124.777494 102.591939,118.83593 103.035607,111.99061 C103.500918,104.815001 109.037757,99.5739386 115.837067,98.1983414 C121.431619,97.0695532 127.740369,100.9205 130.52502,105.646166 C132.183309,108.412343 132.8918,111.650394 132.541367,114.861579 L132.541367,114.861579 Z" id="形状" fill="#FDFDFD"></path>
                <path d="M111,114 C111,118.970563 115.029437,123 120,123 C124.970563,123 129,118.970563 129,114 C129,109.029437 124.970563,105 120,105 C115.029437,105 111,109.029437 111,114 L111,114 Z" id="路径" fill="#3A220C"></path>
                <path d="M155,114 C155,118.970563 159.029437,123 164,123 C168.970563,123 173,118.970563 173,114 C173,109.029437 168.970563,105 164,105 C159.029437,105 155,109.029437 155,114 L155,114 Z" id="路径" fill="#3A220C"></path>
                <path d="M141.203215,193.981956 C138.064775,193.911454 134.937269,193.618111 131.849449,193.104621 C127.659059,192.460154 123.782598,190.68035 120.731093,187.999836 C114.633929,182.609105 113.916616,172.565254 116.183326,165.514087 C117.259296,162.160721 119.346678,159.015315 122.449058,156.935708 C125.849123,154.661138 130.160177,153.85529 134.35646,153.423122 C140.40683,152.757398 146.531124,152.877757 152.543939,153.780555 C157.66197,154.586402 163.185283,156.415807 165.918247,160.695247 C167.586628,163.345996 168.590701,166.296902 168.859231,169.338614 C169.436669,175.4962 168.346352,182.661095 163.551113,187.340211 C160.800876,189.99031 157.277762,191.87976 153.390369,192.789431 C149.407618,193.691652 145.306751,194.092926 141.203215,193.981956 L141.203215,193.981956 Z" id="路径" fill="#FFFFFF"></path>
                <path d="M141.828814,190.420096 C139.213225,190.3669 136.606429,190.134411 134.032392,189.724766 C130.541327,189.205321 127.312063,187.773027 124.770038,185.61658 C119.69033,181.278744 119.103228,173.199525 120.981225,167.525253 C121.874641,164.826864 123.617714,162.287954 126.20315,160.622991 C129.036555,158.798548 132.632099,158.144683 136.129185,157.797018 C141.170815,157.261436 146.274041,157.358098 151.284438,158.084081 C155.550955,158.721998 160.152959,160.205155 162.432081,163.646718 C163.822371,165.779116 164.659002,168.153044 164.882594,170.600013 C165.363944,175.553439 164.455942,181.326588 160.459273,185.08392 C158.163696,187.215813 155.223777,188.734364 151.980937,189.46322 C148.663075,190.187876 145.247011,190.509853 141.828814,190.420096 L141.828814,190.420096 Z" id="路径" fill="#DC4E45"></path>
            </g>
        </g>
    </g>
</svg>