<?xml version="1.0" encoding="UTF-8"?>
<svg width="390px" height="390px" viewBox="0 0 390 390" version="1.1" xmlns="http://www.w3.org/2000/svg" xmlns:xlink="http://www.w3.org/1999/xlink">
    <title>木鱼青蛙</title>
    <g id="木鱼青蛙" stroke="none" stroke-width="1" fill="none" fill-rule="evenodd">
        <g id="编组-5">
            <rect id="矩形" fill="#BEE9B4" x="0" y="0" width="390" height="390"></rect>
            <g id="编组-4" transform="translate(82.000000, 82.000000)">
                <g id="编组" transform="translate(0.000000, 9.132571)" fill-rule="nonzero">
                    <path d="M219,127.734091 C219,177.038316 171.543241,217 113.011031,217 C54.4567593,217 7,177.038316 7,127.734091 C7,103.953078 18.0313248,82.3498131 36.0123842,66.3651395 C41.9913623,73.7694842 51.2135498,78.4734209 61.5609325,78.4734209 C79.6302425,78.4734209 94.3019045,64.0349487 94.3019045,46.1556339 C94.3019045,44.0214404 94.1033406,41.9743568 93.6841503,39.9490508 C99.9499428,38.969064 106.414299,38.4681818 113.033094,38.4681818 C121.703715,38.4681818 130.109585,39.3392812 138.184515,41.0161475 C137.8977,42.6930138 137.765324,44.4352126 137.765324,46.1774113 C137.765324,64.0349487 152.436986,78.4951984 170.528359,78.4951984 C179.375481,78.4951984 187.384223,75.0325783 193.274951,69.4357648 C209.292434,85.0502212 219,105.433947 219,127.734091 Z" id="路径" fill="#73C673"></path>
                    <path d="M219,127 C219,176.709685 171.543241,217 113.011031,217 C54.4567593,217 7,176.709685 7,127 C7,103.02342 18.0313248,81.2424982 36.0123842,65.1263723 C41.9913623,72.5916077 51.2135498,77.3342279 61.5609325,77.3342279 C79.6302425,77.3342279 94.3019045,62.7770188 94.3019045,44.7506709 C94.3019045,42.5989266 94.1033406,40.5350085 93.6841503,38.4930471 C99.9499428,37.5050012 106.414299,37 113.033094,37 C121.703715,37 130.109585,37.878263 138.184515,39.5689192 C137.8977,41.2595755 137.765324,43.0161015 137.765324,44.7726275 C137.765324,62.7770188 152.436986,77.3561844 170.528359,77.3561844 C179.375481,77.3561844 187.384223,73.865089 193.274951,68.2222493 C209.292434,83.9651134 219,104.516467 219,127 Z" id="路径" fill="#73C673"></path>
                    <polygon id="路径" fill="#383F51" points="138.005 41.4272727 137.995 41.4272727 137.995 27.6181818"></polygon>
                    <path d="M26.9156627,128.65877 C26.9156627,106.435411 36.6366519,86.1473551 52.6829423,70.5562122 C48.6214331,68.4686951 45.0481928,65.6201042 42.2073557,62.1409091 C24.1192137,78.1017165 13,99.6727259 13,123.418232 C13,161.885083 42.1407736,194.654751 83,207.136364 C49.6201649,192.088845 26.9156627,162.580922 26.9156627,128.65877 Z" id="路径" fill="#73C673" opacity="0.5"></path>
                    <path d="M113.011034,217 C50.6905576,217 0,173.853014 0,120.81273 C0,95.8833606 11.1223513,72.2614755 31.3367835,54.3053562 C32.7712137,53.0414546 34.6470071,52.4095038 36.5669368,52.5620437 C38.4868665,52.7145835 40.230251,53.651614 41.4439996,55.1334297 C46.3431306,61.1914408 53.6697588,64.6780659 61.548091,64.6780659 C75.7599844,64.6780659 87.3236989,53.2593687 87.3236989,39.2257027 C87.3236989,37.5477644 87.1692218,35.9787831 86.8381994,34.3880104 C86.4630407,32.5575322 86.8602676,30.6398884 87.9416073,29.0926985 C89.022947,27.5455086 90.7001269,26.5213125 92.5759203,26.2162328 C107.891222,23.819178 124.376135,24.1896319 139.603164,27.3275945 C143.24441,28.0902938 145.649839,31.5333361 145.03193,35.172501 C144.811249,36.4799854 144.700908,37.8310526 144.700908,39.2039113 C144.700908,53.2375773 156.264623,64.6562745 170.498584,64.6562745 C177.229372,64.6562745 183.585001,62.1284713 188.439996,57.5086931 C191.154379,54.9155156 195.479738,54.937307 198.172054,57.5740673 C216.113465,75.072567 226,97.5177161 226,120.834521 C225.977932,173.853014 175.287374,217 113.011034,217 Z M35.8607558,69.1017215 C21.6709306,83.7237555 13.9250073,101.875997 13.9250073,120.81273 C13.9250073,166.269605 58.3702763,203.249622 113.011034,203.249622 C167.629724,203.249622 212.074993,166.269605 212.074993,120.81273 C212.074993,103.118108 205.211796,85.9028962 192.632946,71.7820646 C186.144908,76.0967631 178.487257,78.4066523 170.520652,78.4066523 C148.783517,78.4066523 131.084855,61.1042752 130.797969,39.7051136 C121.132116,38.2450894 111.002832,37.9835925 101.248706,38.9424144 L101.248706,39.1821199 C101.248706,60.7991955 83.4397032,78.3848608 61.548091,78.3848608 C51.9925788,78.4066523 42.9446343,75.072567 35.8607558,69.1017215 Z" id="形状" fill="#73C673"></path>
                    <path d="M94,39.4435748 C94,57.4354858 79.2122642,72.0045455 61,72.0045455 C50.5707547,72.0045455 41.2978437,67.2432714 35.2493261,59.8051521 C30.712938,54.2539893 28,47.1669317 28,39.4655161 C28,21.4955465 42.7432615,6.90454545 61,6.90454545 C77.0330189,6.90454545 90.4198113,18.2043432 93.3551213,33.21223 C93.7998652,35.2308346 94,37.293322 94,39.4435748 L94,39.4435748 Z" id="路径" fill="#DEFFDE"></path>
                    <path d="M61.5,77.9227273 C49.4238466,77.9227273 38.1820456,72.5950478 30.6728738,63.3040944 C25.0958866,56.4604086 22,47.8191723 22,38.9613636 C22,17.4773877 39.7190106,0 61.5,0 C80.360756,0 96.6745414,13.2542271 100.253474,31.489618 C100.73652,33.8719137 101,36.40581 101,38.9613636 C101,60.4453396 83.2809894,77.9227273 61.5,77.9227273 Z M61.5,13.6657145 C47.3599222,13.6657145 35.8546415,25.0141051 35.8546415,38.9613636 C35.8546415,44.7871595 37.8087827,50.2447825 41.475542,54.7711443 C46.3718733,60.8135126 53.6614786,64.27867 61.5,64.27867 C75.6400778,64.27867 87.1453585,52.9302794 87.1453585,38.9830209 C87.1453585,37.3154139 86.991662,35.756093 86.6623124,34.175115 C84.3349083,22.2419791 73.7518066,13.6657145 61.5,13.6657145 L61.5,13.6657145 Z" id="形状" fill="#DEFFDE"></path>
                    <path d="M61.5,77.9227273 C49.4238466,77.9227273 38.1820456,72.5950478 30.6728738,63.3040944 C25.0958866,56.4604086 22,47.8191723 22,38.9613636 C22,17.4773877 39.7190106,0 61.5,0 C80.360756,0 96.6745414,13.2542271 100.253474,31.489618 C100.73652,33.8719137 101,36.40581 101,38.9613636 C101,60.4453396 83.2809894,77.9227273 61.5,77.9227273 Z M61.5,13.6657145 C47.3599222,13.6657145 35.8546415,25.0141051 35.8546415,38.9613636 C35.8546415,44.7871595 37.8087827,50.2447825 41.475542,54.7711443 C46.3718733,60.8135126 53.6614786,64.27867 61.5,64.27867 C75.6400778,64.27867 87.1453585,52.9302794 87.1453585,38.9830209 C87.1453585,37.3154139 86.991662,35.756093 86.6623124,34.175115 C84.3349083,22.2419791 73.7518066,13.6657145 61.5,13.6657145 L61.5,13.6657145 Z" id="形状" fill="#DEFFDE"></path>
                    <path d="M204,39.4764794 C204,48.6448756 200.152965,56.9578473 193.948787,62.8800172 C188.011456,68.5389794 179.917116,72.0045455 171.022237,72.0045455 C152.787736,72.0045455 138,57.4623285 138,39.4545455 C138,37.6998285 138.133423,35.9451115 138.422507,34.2561964 C140.957547,18.7488851 154.588949,6.90454545 171.022237,6.90454545 C189.212264,6.92647942 204,21.5125643 204,39.4764794 Z" id="路径" fill="#DEFFDE"></path>
                    <path d="M171.011114,77.9227273 C148.938316,77.9227273 131,60.4453396 131,38.9613636 C131,36.8389547 131.177827,34.738203 131.511253,32.7240803 C134.645457,13.7740007 151.250069,0 171.011114,0 C193.061684,0 211,17.4773877 211,38.9613636 C211,49.6167227 206.665463,59.557393 198.818839,66.9858242 C191.30564,74.0460824 181.436232,77.9227273 171.011114,77.9227273 Z M171.011114,13.6657145 C158.185329,13.6657145 147.382328,22.6101521 145.359544,34.9331181 C145.13726,36.2542094 145.026118,37.5969579 145.026118,38.9830209 C145.026118,52.9302794 156.673798,64.27867 171.011114,64.27867 C177.790775,64.27867 184.192553,61.7664308 189.082801,57.1750973 C194.173104,52.3671914 196.99611,45.8916785 196.99611,38.9830209 C196.973882,25.0141051 185.326202,13.6657145 171.011114,13.6657145 Z" id="形状" fill="#DEFFDE"></path>
                    <path d="M148.625,39.4545455 C148.625,45.446835 153.549868,50.3045455 159.625,50.3045455 C165.700132,50.3045455 170.625,45.446835 170.625,39.4545455 C170.625,33.4622559 165.700132,28.6045455 159.625,28.6045455 C153.549868,28.6045455 148.625,33.4622559 148.625,39.4545455 L148.625,39.4545455 Z" id="路径" fill="#383F51"></path>
                    <path d="M39.375,39.4545455 C39.375,45.446835 44.2998678,50.3045455 50.375,50.3045455 C56.4501322,50.3045455 61.375,45.446835 61.375,39.4545455 C61.375,33.4622559 56.4501322,28.6045455 50.375,28.6045455 C44.2998678,28.6045455 39.375,33.4622559 39.375,39.4545455 L39.375,39.4545455 Z" id="路径" fill="#383F51"></path>
                    <path d="M95,102.704545 C95,106.570539 98.177334,109.704545 102.096774,109.704545 C106.016214,109.704545 109.193548,106.570539 109.193548,102.704545 C109.193548,100.203687 107.840911,97.8927973 105.645161,96.6423677 C103.449412,95.391938 100.744137,95.391938 98.548387,96.6423677 C96.3526373,97.8927973 95,100.203687 95,102.704545 L95,102.704545 Z" id="路径" fill="#383F51"></path>
                    <path d="M130,102.704545 C130,106.570539 133.177334,109.704545 137.096774,109.704545 C141.016214,109.704545 144.193548,106.570539 144.193548,102.704545 C144.193548,98.8385522 141.016214,95.7045455 137.096774,95.7045455 C133.177334,95.7045455 130,98.8385522 130,102.704545 L130,102.704545 Z" id="路径" fill="#383F51"></path>
                </g>
                <path d="M68.5001492,9.17059704 C85.2791955,9.17059704 100.042475,19.6586452 105.616862,34.8108297 L31.3763207,34.8108951 C36.9036408,19.8676158 51.458612,9.17059704 68.5001492,9.17059704 Z" id="形状结合" fill="#73C673" transform="translate(68.496591, 21.990746) rotate(15.000000) translate(-68.496591, -21.990746) "></path>
                <path d="M163.499853,9.17061093 C180.278899,9.17061093 195.042178,19.6586591 200.616566,34.8108436 L126.376024,34.810909 C131.903344,19.8676297 146.458315,9.17061093 163.499853,9.17061093 Z" id="形状结合备份" fill="#73C673" transform="translate(163.496295, 21.990760) rotate(-15.000000) translate(-163.496295, -21.990760) "></path>
            </g>
            <path d="M195.011034,308.132571 C141.604949,308.132571 96.7396266,276.446352 84.9971829,234.00153 L304.99865,234.001221 C293.249092,276.43937 248.385175,308.132571 195.011034,308.132571 Z" id="形状结合" fill="#53A946"></path>
            <path d="M307.399768,226.001882 C307.010544,228.709873 306.435207,231.378299 305.683078,234.000477 L84.3169217,234.000477 C83.5647934,231.378299 82.9894559,228.709873 82.6002322,226.001882 Z" id="形状结合" fill="#383F51"></path>
        </g>
    </g>
</svg>