<?xml version="1.0" encoding="UTF-8"?>
<svg width="390px" height="390px" viewBox="0 0 390 390" version="1.1" xmlns="http://www.w3.org/2000/svg" xmlns:xlink="http://www.w3.org/1999/xlink">
    <title>木鱼亲吻</title>
    <g id="木鱼亲吻" stroke="none" stroke-width="1" fill="none" fill-rule="evenodd">
        <g id="编组-4">
            <rect id="矩形" fill="#D1A674" x="0" y="0" width="390" height="390"></rect>
            <g id="编组" transform="translate(76.000000, 120.000000)" fill-rule="nonzero">
                <path d="M0,59.6864806 C13.0134041,65.8608521 16.1088254,71 40.6195088,71 C79.786065,71 79.786065,49.9257978 118.984207,49.9257974 C158.182349,49.9257971 158.182349,71 197.380491,71 C221.038355,71 225.80783,65.4541572 238,59.3907025 C238,59.3907025 202.055209,46.3394858 160.74081,5.85483403 C153.1286,-1.53962277 133.32422,-2.35301322 126.280557,5.85483403 L118.352489,15.1718498 L110.392834,5.85483403 C103.380757,-2.35301322 83.5763769,-1.53962277 75.9641672,5.85483403 C34.6497678,46.3394858 0,59.6864806 0,59.6864806 Z" id="路径" fill="#FF6B5B"></path>
                <path d="M197.385881,70.8285096 C158.192941,70.8285096 158.192941,50 119,50 C79.8070592,50 79.8070595,70.8285092 40.614119,70.8285096 C26.4732022,71.1725943 12.491497,67.32324 0,59.6468885 C6.31634806,105.652315 57.2261147,151 118.968418,151 C180.710722,151 231.809979,105.469609 238,59.2449351 C227.704352,64.8357455 217.945595,70.8285096 197.385881,70.8285096 L197.385881,70.8285096 Z" id="路径" fill="#B44038"></path>
                <path d="M197.385881,70.8285096 C158.192941,70.8285096 158.192941,50 119,50 C79.8070592,50 79.8070595,70.8285092 40.614119,70.8285096 C26.4732022,71.1725943 12.491497,67.32324 0,59.6468885 C6.31634806,105.652315 57.2261147,151 118.968418,151 C180.710722,151 231.809979,105.469609 238,59.2449351 C227.704352,64.8357455 217.945595,70.8285096 197.385881,70.8285096 L197.385881,70.8285096 Z" id="路径" fill="#B44038"></path>
                <path d="M197.805567,84.8028446 C187.977213,85.0019377 178.182111,83.4345832 168.774287,80.1574303 C153.188288,87.7156495 136.395835,91.4249371 119.484222,91.0451204 C102.582478,91.4295854 85.7994877,87.7200131 70.2257131,80.1574303 C60.8069016,83.4336794 51.0015358,85.0009726 41.1628772,84.8028446 C22.2294337,84.8028446 14.1827202,81.972045 5,77.217754 C19.8627534,116.486023 65.4607966,151 119.452666,151 C173.444536,151 219.231914,116.340853 234,77 C226.016398,81.2099068 217.149235,84.8028446 197.805567,84.8028446 L197.805567,84.8028446 Z" id="路径" fill="#DC4E45"></path>
                <path d="M197.385881,84.9697329 C187.549429,85.1685421 177.746256,83.6034229 168.330679,80.3309437 C152.731838,87.8783837 135.925548,91.5823813 119,91.2031063 C102.084329,91.5870229 85.2875097,87.8827411 69.7009025,80.3309437 C60.2743299,83.6025204 50.4608846,85.1675784 40.614119,84.9697329 C21.6650745,84.9697329 9.03237806,65.1461568 0,60.3986457 C7.07431005,110.338112 64.9320593,151 118.968418,151 C173.004777,151 232.062633,105.590601 238,60 C230.104565,64.2763839 216.745488,84.9697333 197.385881,84.9697329 L197.385881,84.9697329 Z" id="路径" fill="#DC4E45"></path>
                <path d="M119,63.7100738 C130.891097,63.3249046 142.668337,66.5096425 153.209,72.9606878 C158.068012,75.6936585 163.077078,78.0452912 168.203,80 C173.218682,77.4057117 177.870259,73.9390088 182,69.7174446 C157.241,65.1842751 152.2325,50 119,50 C85.7674995,50 80.7904999,65.1842751 56,69.7174446 C60.1283519,73.9593582 64.793091,77.4279511 69.8285001,80 C74.9871305,78.0517779 80.0279939,75.700039 84.9170001,72.9606878 C95.420136,66.5341686 107.151308,63.3501606 119,63.7100738 L119,63.7100738 Z" id="路径" fill="#FFCACA"></path>
                <path d="M168,80.3352794 C162.856292,78.3788774 157.829845,76.0252078 152.953973,73.2898698 C142.376736,66.8332365 130.558631,63.64574 118.626273,64.0312428 C106.736469,63.6710178 94.9645911,66.8577839 84.4250109,73.2898698 C79.5600811,76.0254924 74.5441304,78.379192 69.4105935,80.3352794 C85.010802,88.0217776 101.822279,91.7921323 118.752711,91.4013678 C135.650584,91.7667144 152.426638,87.9970593 168,80.3352794 L168,80.3352794 Z M36.7581863,106.045491 C35.922108,106.040551 35.1150221,105.687361 34.4823168,105.049543 L32.9966798,103.574065 C31.7156494,102.029891 31.6631507,99.5974565 32.8759439,97.9799847 C34.0887371,96.362513 36.1616695,96.1003456 37.6432467,97.3770555 L39.0340559,98.7787598 C40.2326843,99.8788827 40.6929615,101.751078 40.1764357,103.425433 C39.6599098,105.099788 38.2826599,106.200025 36.7581863,106.156152 L36.7581863,106.045491 Z M119.859036,139.981495 C121.197888,140.129623 122.493049,139.379702 123.201834,138.045957 C123.910619,136.712213 123.910619,135.024985 123.201834,133.691241 C122.493049,132.357496 121.197888,131.607575 119.859036,131.755703 L118.689492,131.755703 C96.4915374,131.895742 74.6651191,125.107807 55.470892,112.094953 C52.8943559,110.309204 50.3744743,108.414415 47.9162694,106.414361 C46.3276519,105.110546 44.1340972,105.556447 43.0168277,107.410308 C41.8995583,109.26417 42.2816613,111.823973 43.8702788,113.127788 C46.4306321,115.230344 49.1490318,117.296014 51.8990411,119.177249 C72.1382258,132.910604 95.1512715,140.092426 118.563055,139.981495 L119.859036,139.981495 Z" id="形状" fill="#FFFFFF" opacity="0.400000006"></path>
            </g>
        </g>
    </g>
</svg>