<?xml version="1.0" encoding="UTF-8"?>
<svg width="390px" height="390px" viewBox="0 0 390 390" version="1.1" xmlns="http://www.w3.org/2000/svg" xmlns:xlink="http://www.w3.org/1999/xlink">
    <title>木鱼心跳</title>
    <g id="木鱼心跳" stroke="none" stroke-width="1" fill="none" fill-rule="evenodd">
        <g id="编组-4">
            <rect id="矩形" fill="#EBDAC0" x="0" y="0" width="390" height="390"></rect>
            <g id="编组" transform="translate(70.000000, 105.000000)" fill-rule="nonzero">
                <path d="M151.636083,11.8785905 C134.720849,25.5363798 129.996531,25.3195895 111.235012,12.6644553 C85.848587,-4.46197901 54.1630701,-5.57302934 34.3155013,17.7319288 C14.3321762,41.145282 20.441209,73.9348161 29.4011238,92.3619923 C29.8083927,93.1749559 30.269964,94.0421172 30.7043842,94.8550808 L53.3213812,94.8550808 L65.4851443,60.0331376 C67.0056147,55.6973314 70.9696982,52.8790574 75.5854119,52.8790574 L75.6125631,52.8790574 C80.255428,52.8790574 84.2195116,55.7244302 85.7128307,60.0873352 L94.6455942,85.9124806 L95.568737,84.4762448 C97.7408375,81.115995 101.596316,79.3545738 105.5604,79.6526605 C109.551634,80.0320435 112.972693,82.5793296 114.466012,86.2918636 L119.814809,99.5431712 L126.412565,76.1840155 C127.661523,71.766913 131.598455,68.6234535 136.214169,68.433762 C140.965639,68.1627741 145.038327,70.9810481 146.694554,75.2626567 L154.269754,94.9363772 L192.905993,94.8550808 L192.933144,94.8550808 C196.842925,94.8550808 200.046774,98.0256391 200.046774,101.927865 C200.046774,105.857189 196.870077,109.027747 192.933144,109.054846 L151.853293,109.136142 C147.427638,109.136142 143.409252,106.372066 141.834479,102.280149 L137.218765,90.221188 L130.702463,113.282257 C129.453506,117.672261 125.543725,120.788621 120.982313,121.03251 C120.792255,121.03251 120.602196,121.059609 120.412137,121.059609 C116.067936,121.059609 112.131004,118.431027 110.501928,114.366209 L103.822719,97.8359475 L102.655215,99.6515664 C100.401661,103.093113 96.4647284,104.93583 92.3920399,104.448052 C88.2922001,103.960274 84.9254442,101.223296 83.5678814,97.3210706 L75.5854119,74.2600016 L65.9467156,101.846568 C64.4533965,106.128177 60.4078592,109.000648 55.8464481,109.000648 L39.1755763,109.000648 C56.9324983,135.476165 86.4187634,164.173782 112.755483,175.880458 C124.349069,181.029228 133.689102,181.706698 144.984025,175.880458 C176.968205,159.377296 212.400596,121.764178 226.464947,94.5840929 C241.262382,65.9948711 242.538491,41.5246651 226.11198,20.9566846 C209.115293,-0.342963158 173.004122,-5.38333782 151.636083,11.8785905 Z" id="路径" fill="#FE506B"></path>
                <path d="M7.10990502,95 C3.17503392,95 0,98.1259542 0,102 C0,105.874046 3.17503392,109 7.10990502,109 L40,109 C36.743555,104.217557 33.9213026,99.5152672 31.5603799,95 L7.10990502,95 L7.10990502,95 Z" id="路径" fill="#F4FCFF" opacity="0.800000012"></path>
                <path d="M75.7902838,74.3613979 L83.7566138,97.3431295 C85.0843354,101.23193 88.4713805,103.932486 92.5629309,104.445592 C96.627385,104.931692 100.583454,103.122319 102.805355,99.6656076 L103.970499,97.8562351 L110.636203,114.329627 C112.261985,118.380461 116.190957,121 120.526375,121 C120.716049,121 120.905724,121 121.095398,120.972994 C125.647587,120.729944 129.549463,117.624305 130.795895,113.249404 L137.299022,90.2676728 L141.905403,102.285147 C143.476992,106.362986 147.487253,109.117554 151.90396,109.117554 L192.900754,109.036537 C196.829726,109.036537 200,105.849881 200,101.934075 C200,98.045274 196.802629,94.8856235 192.900754,94.8856235 L192.873657,94.8856235 L154.315536,94.9666402 L146.809844,75.3065925 C145.156966,71.0127085 141.092512,68.2311358 136.350649,68.5011914 C131.744268,68.7172359 127.815296,71.8228753 126.568863,76.2247816 L119.984448,99.5035743 L114.646465,86.2978554 C113.156165,82.5980937 109.742023,80.0595711 105.758858,79.6814932 C101.80279,79.3844321 97.9551066,81.1397935 95.7873978,84.4884829 L94.8661215,85.9197776 L85.8972262,60.183479 C84.4069264,55.8355838 80.4508578,53.0270056 75.8173802,53 L75.7902838,53 C71.1839025,53 67.2278339,55.8085782 65.7104377,60.1294678 L53.5712682,94.8316124 L31,94.8316124 C33.3573834,99.395552 36.1754048,104.148531 39.4269681,108.982526 L56.0641334,108.982526 C60.6434183,109.009531 64.680776,106.119936 66.1710758,101.853058 L75.7902838,74.3613979 Z" id="路径" fill="#F4FCFF" opacity="0.600000024"></path>
            </g>
        </g>
    </g>
</svg>