<?xml version="1.0" encoding="UTF-8"?>
<svg width="390px" height="390px" viewBox="0 0 390 390" version="1.1" xmlns="http://www.w3.org/2000/svg" xmlns:xlink="http://www.w3.org/1999/xlink">
    <title>木鱼水滴</title>
    <defs>
        <linearGradient x1="47.6701827%" y1="0%" x2="50%" y2="100%" id="linearGradient-1">
            <stop stop-color="#9DDCFE" offset="0%"></stop>
            <stop stop-color="#74B9F4" offset="100%"></stop>
        </linearGradient>
        <linearGradient x1="50%" y1="0%" x2="50%" y2="94.8518404%" id="linearGradient-2">
            <stop stop-color="#78CDFF" offset="0%"></stop>
            <stop stop-color="#3288ED" offset="100%"></stop>
        </linearGradient>
    </defs>
    <g id="木鱼水滴" stroke="none" stroke-width="1" fill="none" fill-rule="evenodd">
        <g id="编组-4">
            <rect id="矩形" fill="#D1F3FC" x="0" y="0" width="390" height="390"></rect>
            <g id="编组" transform="translate(106.000000, 90.000000)" fill-rule="nonzero">
                <path d="M86.6988244,1.06169617 C86.6988244,1.06169617 89.4794686,-1.77273806 93.6504347,1.82091962 C100.045916,7.33794338 147.139916,51.8790526 166.756096,85.6138814 C181.392396,110.769485 182.403539,140.910656 172.469056,162.143605 C161.725658,185.097461 149.465546,194.790214 138.166019,200.155393 C125.678399,206.077336 117.083681,209.595071 84.4743092,210 C81.0364219,210.050605 80,8.17308918 80,8.17308918 L86.6988244,1.06169617 L86.6988244,1.06169617 Z" id="路径" fill="url(#linearGradient-1)" opacity="0.699999988"></path>
                <path d="M86.5,210 C38.726853,210 0,173.854669 0,129.255177 C0,99.5137459 28.8333309,56.7620201 86.5,1 C144.166655,56.7620201 173,99.5137459 173,129.255177 C173.027316,173.829357 134.273133,210 86.5,210 Z" id="形状" fill="url(#linearGradient-2)"></path>
                <path d="M173,129.255177 C173.027316,173.829357 134.273133,210 86.5,210 C67.2504692,210 49.4696729,204.131531 35.0993059,194.206143 C39.5218052,194.73075 44.0217858,195 48.5846532,195 C107.808539,195 156.438012,149.63993 161.626624,91.7662401 C169.208274,105.973629 173,118.469862 173,129.255177 Z" id="形状结合" fill="#045083" opacity="0.200000003"></path>
            </g>
        </g>
    </g>
</svg>