<?xml version="1.0" encoding="UTF-8"?>
<svg width="390px" height="390px" viewBox="0 0 390 390" version="1.1" xmlns="http://www.w3.org/2000/svg" xmlns:xlink="http://www.w3.org/1999/xlink">
    <title>木鱼猫咪</title>
    <g id="木鱼猫咪" stroke="none" stroke-width="1" fill="none" fill-rule="evenodd">
        <g id="编组-4">
            <rect id="矩形" fill="#F7DEBF" x="0" y="0" width="390" height="390"></rect>
            <g id="编组" transform="translate(82.000000, 82.000000)">
                <path d="M205.170302,4 C204.729544,4 204.262859,4.02618243 203.796174,4.0785473 C182.847216,6.35641892 162.676065,31.5439189 155.001694,42.2525338 L153.368297,44.5304054 L150.620043,43.9805743 C145.642072,42.9856419 140.560394,42.4619932 135.478716,42.4619932 L89.5102708,42.4619932 C84.4285927,42.4619932 79.3209876,42.9594595 74.3689442,43.9805743 L71.6206897,44.5304054 L69.9872932,42.2525338 C62.2610683,31.5439189 42.1158444,6.35641892 21.1409587,4.0785473 C20.674274,4.02618243 20.2075893,4 19.7668315,4 C15.6703767,4 12.4554374,6.27787162 9.94052533,10.964527 C5.61072816,19.0287162 4.00325856,33.4552365 5.61072816,49.6097973 C7.16634391,65.1621622 11.522068,79.9552365 16.9667231,88.2288851 L18.2112157,90.1140203 L17.4074809,92.2086149 C14.0369801,101.005912 12.3258028,110.274493 12.3258028,119.752534 L12.3258028,139.310811 C12.3258028,184.344595 48.9346267,221 93.9437757,221 L131.071138,221 C176.080287,221 212.689111,184.344595 212.689111,139.310811 L212.689111,119.752534 C212.689111,110.274493 210.977934,101.005912 207.581506,92.2086149 L206.777771,90.1140203 L208.022264,88.2288851 C213.466919,79.9552365 217.822643,65.1621622 219.378259,49.6097973 C221.011655,33.4552365 219.378259,19.0287162 215.048462,10.964527 C212.481696,6.27787162 209.266756,4 205.170302,4 L205.170302,4 Z" id="路径" fill="#F9B44C" fill-rule="nonzero"></path>
                <path d="M220.180893,11.1308912 C215.188025,1.91824883 208.177837,0 203.159753,0 C202.428474,0 201.671979,0.0504802323 200.915484,0.126200581 C179.128425,2.47353138 159.636067,24.0790708 149.070352,38.2135358 C144.556598,37.4563324 139.941978,37.0777306 135.352574,37.0777306 L90.6689296,37.0777306 C86.079526,37.0777306 81.4649058,37.4563324 76.9511516,38.2135358 C66.3854365,24.0790708 46.8678626,2.47353138 25.1060198,0.126200581 C24.3495247,0.0504802323 23.5930296,0 22.861751,0 C17.8436667,0 10.8334787,1.94348894 5.84061093,11.1308912 C0.772093667,20.4697342 -1.11914412,35.7904847 0.646011149,53.231405 C2.20943438,68.678356 6.37015751,83.0904624 11.8925718,92.4040652 C8.71529236,101.263346 7.10143612,110.551709 7.10143612,119.991512 L7.10143612,138.845879 C7.10143612,162.041546 16.255027,183.899486 32.8979195,200.406522 C49.540812,216.913558 71.5800363,226 94.9305188,226 L131.040552,226 C154.416251,226 176.455476,216.913558 193.073151,200.406522 C209.716044,183.899486 218.869635,162.041546 218.869635,138.845879 L218.869635,119.991512 C218.869635,110.526469 217.255779,101.263346 214.078499,92.4040652 C219.600913,83.1157025 223.761637,68.7035962 225.32506,53.231405 C227.140648,35.7904847 225.24941,20.4697342 220.180893,11.1308912 Z M216.927964,52.373241 C215.414974,67.36587 211.178601,81.6265356 205.883135,89.6024123 L204.672743,91.4197007 L205.454455,93.43891 C208.757817,101.944829 210.422106,110.87983 210.422106,119.991512 L210.422106,138.845879 C210.422106,182.258879 174.816403,217.595041 131.040552,217.595041 L94.9557353,217.595041 C51.1798847,217.595041 15.5741814,182.258879 15.5741814,138.845879 L15.5741814,119.991512 C15.5741814,110.85459 17.2384706,101.919589 20.5418326,93.43891 L21.3235442,91.4197007 L20.1131521,89.6024123 C14.8176863,81.6265356 10.5813136,67.36587 9.06832341,52.373241 C7.47968367,36.8000893 9.06832341,22.8927853 13.2794795,15.1188296 C13.7081601,14.3616261 14.1368407,13.6549028 14.5907377,13.0238999 C16.9863056,14.0839848 21.9791733,16.6837168 27.7033197,21.8074604 C34.5874252,27.9912888 43.8418821,39.1726603 50.2973071,57.9513067 C52.6424419,56.3106991 55.0884428,54.771052 57.6353097,53.3323654 C48.0782548,26.8807237 33.2005175,14.1597052 23.9460606,8.48067903 C24.0217102,8.48067903 24.0721432,8.48067903 24.1477927,8.50591914 C44.5227277,10.7018092 64.1411677,34.982801 71.6052528,45.3060085 L73.1938925,47.5018986 L75.8668419,46.9718562 C80.7084106,46.0127317 85.6508454,45.5079294 90.5932801,45.5079294 L135.276925,45.5079294 C140.21936,45.5079294 145.187011,45.9874916 150.003363,46.9718562 L152.676312,47.5018986 L154.264952,45.3060085 C161.85512,34.9575609 181.448343,10.6765691 201.823278,8.48067903 C201.898928,8.48067903 201.974577,8.45543891 202.075443,8.45543891 C192.820986,14.134465 177.943249,26.8554836 168.386194,53.3071253 C170.933061,54.7458119 173.379062,56.3106991 175.724197,57.9260666 C182.179622,39.1726603 191.434079,27.9912888 198.318184,21.7822202 C204.017114,16.6584767 208.984765,14.0587447 211.40555,12.9986598 C211.859447,13.6296627 212.288127,14.3111459 212.716808,15.0935895 C216.927964,22.8927853 218.516604,36.8253295 216.927964,52.373241 Z" id="形状" fill="#F9B44C" fill-rule="nonzero"></path>
                <path d="M134,37 L134,61 L133.983733,61.0007168 C133.585099,73.2389974 125.909866,83 116.5,83 C107.090134,83 99.4149011,73.2389974 99.0162667,61.0007168 L99,61 L99,37 L134,37 Z" id="形状结合" fill="#724C27"></path>
                <path d="M51,117.5 C51,124.403559 56.5964406,130 63.5,130 C70.4035594,130 76,124.403559 76,117.5 C76,113.03418 73.6175136,108.907592 69.7500001,106.674682 C65.8824866,104.441773 61.1175134,104.441773 57.2499999,106.674682 C53.3824864,108.907592 51,113.03418 51,117.5 L51,117.5 Z" id="路径" fill="#724C27" fill-rule="nonzero"></path>
                <path d="M143,117.5 C143,124.403559 148.596441,130 155.5,130 C162.403559,130 168,124.403559 168,117.5 C168,110.596441 162.403559,105 155.5,105 C148.596441,105 143,110.596441 143,117.5 Z" id="路径" fill="#724C27" fill-rule="nonzero"></path>
                <path d="M119.055407,181.50289 C117.203753,179.086705 117.854334,176.568786 117.879357,176.467052 L117.854334,176.543353 L116.503128,176.110983 C116.378016,174.991908 116.152815,174.228902 116.10277,174 L112.974978,174.991908 L109.847185,174 C109.772118,174.203468 109.571939,174.966474 109.446828,176.110983 L108.095621,176.543353 L108.070599,176.467052 C108.095621,176.568786 108.746202,179.086705 106.894549,181.50289 C105.193029,183.74104 100.06345,187.530636 85,187.530636 L85,196 C98.6872207,196 108.095621,193.100578 113,187.378035 C117.904379,193.100578 127.287757,196 141,196 L141,187.530636 C125.886506,187.530636 120.781948,183.74104 119.055407,181.50289 L119.055407,181.50289 Z" id="路径" fill="#FFFFFF" fill-rule="nonzero"></path>
                <path d="M113.004486,160 L106.747194,160 C100.913702,160 97.8473789,166.777572 101.736374,171.016636 L107.993666,177.818854 C110.661118,180.727049 115.322925,180.727049 117.990377,177.818854 L124.24767,171.016636 C128.161594,166.777572 125.095271,160 119.23685,160 L113.004486,160 L113.004486,160 Z" id="路径" fill="#FB6346" fill-rule="nonzero"></path>
                <path d="M188,151.295347 L187.621021,149 L141.10763,156.38503 L141.486609,158.680378 L188,151.295347 Z M141.309752,165.416723 L179.864578,165.416723 L179.864578,167.71207 L141.309752,167.71207 L141.309752,165.416723 Z M140.880243,175.670937 L168.419404,186 L169.278423,183.854349 L141.713997,173.525287 L140.880243,175.670937 Z M84.9176352,156.38503 L38.3789793,149 L38,151.295347 L84.5386559,158.680378 L84.9176352,156.38503 Z M46.1606872,165.416723 L84.7155129,165.416723 L84.7155129,167.71207 L46.1606872,167.71207 L46.1606872,165.416723 Z M56.7468418,183.854349 L57.5805963,186 L85.1450227,175.670937 L84.286003,173.525287 L56.7468418,183.854349 Z" id="形状" fill="#724C27" fill-rule="nonzero"></path>
            </g>
        </g>
    </g>
</svg>